<?xml version="1.0" standalone="no"?>
<!DOCTYPE svg PUBLIC "-//W3C//DTD SVG 20010904//EN"
 "http://www.w3.org/TR/2001/REC-SVG-20010904/DTD/svg10.dtd">
<svg version="1.0" xmlns="http://www.w3.org/2000/svg"
 width="700.000000pt" height="700.000000pt" viewBox="0 0 700.000000 700.000000"
 preserveAspectRatio="xMidYMid meet">
<metadata>
Created by potrace 1.14, written by Peter Selinger 2001-2017
</metadata>
<g transform="translate(0.000000,700.000000) scale(0.100000,-0.100000)"
fill="#000000" stroke="none">
<path d="M1897 5934 c-897 -449 -1030 -518 -1047 -547 -19 -31 -20 -52 -20
-632 0 -698 -9 -640 109 -700 l70 -35 3 -414 3 -414 23 -24 22 -25 -133 -169
c-122 -155 -136 -169 -168 -172 -19 -1 -46 -7 -60 -13 -22 -9 -45 0 -181 71
-111 57 -165 80 -192 80 -56 0 -291 -120 -311 -159 -12 -25 -15 -81 -15 -341
0 -279 2 -315 18 -342 13 -23 66 -54 255 -149 l237 -119 0 -198 c0 -164 3
-201 16 -220 17 -25 1501 -772 1533 -772 34 0 207 87 230 116 l22 27 117 -55
c99 -47 154 -65 350 -113 l233 -58 170 84 c93 46 179 94 191 106 24 26 36 122
23 189 -10 56 -40 78 -166 119 -63 21 -117 40 -121 44 -4 3 53 37 126 74 113
57 136 72 150 101 21 44 21 157 1 199 -10 19 -86 90 -186 172 -154 127 -168
141 -147 148 13 5 488 240 1056 523 828 412 1035 519 1044 539 6 14 15 25 20
25 4 0 109 -50 233 -112 l224 -112 46 12 45 12 190 -95 c190 -95 190 -95 437
-157 l248 -61 166 82 c91 45 177 93 190 107 21 22 24 38 27 108 4 95 -10 137
-56 159 -15 8 -72 29 -127 47 -55 18 -103 35 -107 39 -4 4 51 36 124 71 159
79 168 89 168 205 0 59 -5 87 -18 107 -9 15 -119 110 -243 210 -158 128 -251
196 -312 228 l-87 45 0 160 c0 106 -4 168 -13 185 -9 19 -139 89 -577 310
l-565 285 -5 351 c-5 334 -6 353 -25 374 -24 27 -907 470 -937 470 -12 0 -36
-5 -53 -12 -31 -11 -54 0 -590 270 -436 221 -565 282 -593 281 -28 0 -287
-125 -1065 -515z m1203 332 l125 -64 -133 -66 c-72 -36 -132 -63 -132 -60 0 4
-8 0 -18 -9 -10 -9 -400 -206 -867 -438 l-850 -421 -118 58 c-65 33 -121 62
-123 66 -5 8 1962 997 1981 997 6 0 66 -28 135 -63z m285 -271 l-129 -62 -125
59 c-69 33 -127 61 -129 63 -2 2 54 33 124 68 l129 65 130 -66 130 -65 -130
-62z m430 -87 c146 -73 265 -135 265 -138 0 -8 -1973 -991 -1988 -990 -25 1
-534 262 -526 270 11 10 1966 989 1976 990 5 0 127 -60 273 -132z m790 -325
c228 -115 415 -210 415 -213 0 -3 -153 -81 -339 -175 l-339 -169 -148 71 -148
71 -303 -152 -303 -151 140 -70 c77 -38 140 -72 140 -75 0 -6 -666 -340 -679
-340 -6 0 -197 93 -426 207 l-416 207 993 498 c546 273 994 497 995 497 2 1
190 -92 418 -206z m445 -656 l0 -412 -995 -498 c-547 -273 -997 -497 -1000
-497 -3 0 -5 187 -5 415 l0 415 993 494 c545 272 995 495 1000 495 4 1 7 -185
7 -412z m-3409 332 c65 -33 119 -64 119 -67 0 -4 -55 -35 -121 -69 l-122 -62
-123 62 c-68 34 -124 64 -124 67 0 4 236 127 248 129 2 1 57 -26 123 -60z
m-118 -232 l557 -277 0 -435 0 -435 433 -217 432 -218 3 -128 3 -127 -141 70
c-77 38 -142 70 -145 70 -3 0 -5 -259 -5 -575 0 -316 -2 -575 -5 -575 -3 0
-61 28 -130 62 l-125 63 0 580 0 580 -725 363 -725 362 0 561 c0 308 4 559 8
557 5 -1 259 -128 565 -281z m2510 -156 l-273 -136 -130 65 -131 65 273 136
273 137 130 -65 130 -66 -272 -136z m-1013 -937 c0 -228 -3 -414 -7 -412 -5 2
-194 96 -420 208 l-413 205 0 417 0 418 420 -210 420 -210 0 -416z m2613 414
c301 -150 547 -275 547 -278 0 -3 -24 -17 -53 -32 l-52 -25 -500 251 -500 251
-3 53 c-2 28 1 52 5 52 4 0 254 -122 556 -272z m-68 -115 l495 -248 0 -87 c0
-49 -2 -88 -4 -88 -2 0 -29 12 -61 26 -56 26 -56 27 -53 64 l3 38 -472 236
c-423 211 -473 238 -473 259 0 23 27 45 57 46 7 1 236 -110 508 -246z m-885
-103 c0 -121 -3 -160 -12 -160 -7 0 -42 11 -78 24 l-65 24 -158 -79 -158 -79
3 102 3 102 225 112 c124 62 228 113 233 113 4 1 7 -71 7 -159z m330 -50 c8
-5 12 -11 10 -13 -3 -3 -451 -228 -996 -500 -822 -411 -993 -493 -1009 -484
-16 8 144 92 976 508 547 274 996 498 999 498 3 1 12 -3 20 -9z m40 -600 l0
-560 -1000 -500 -1000 -500 0 563 0 562 993 497 c545 273 995 497 1000 497 4
1 7 -251 7 -559z m1146 263 c-2 -2 -27 7 -55 21 l-51 26 0 98 0 98 53 26 52
25 3 -145 c1 -80 1 -147 -2 -149z m-31 -25 c124 -62 225 -115 225 -118 0 -3
-55 -33 -122 -66 l-123 -61 -232 116 c-128 64 -233 119 -233 122 0 7 230 118
247 118 7 1 114 -50 238 -111z m-2425 -58 c0 -98 -4 -160 -10 -160 -5 0 -39
11 -75 25 l-66 25 -160 -80 -160 -80 3 102 3 103 225 112 c124 62 228 113 233
113 4 0 7 -72 7 -160z m2155 -97 l235 -118 0 -57 0 -58 -47 19 c-27 10 -135
49 -240 86 l-193 68 0 88 c0 49 2 89 5 89 3 0 111 -53 240 -117z m737 -144
c106 -89 197 -165 202 -169 5 -5 -51 -38 -123 -74 l-131 -66 -206 171 -205
171 128 63 c70 35 131 64 135 64 4 1 94 -72 200 -160z m-238 -194 c155 -129
166 -141 166 -173 l0 -34 -38 29 c-21 15 -111 82 -200 148 l-162 120 0 53 0
53 34 -28 c18 -15 108 -91 200 -168z m-367 110 l33 -14 0 -91 0 -91 -22 12
c-13 7 -40 23 -60 37 l-38 25 0 74 0 75 27 -7 c15 -3 42 -13 60 -20z m141 -62
l32 -24 0 -100 c0 -54 -2 -99 -5 -99 -3 0 -28 15 -55 33 l-50 32 0 98 c0 97 0
98 23 92 12 -4 37 -18 55 -32z m682 -98 c0 -35 -1 -35 -130 -100 l-130 -65 0
35 c0 35 1 35 128 99 70 36 128 65 130 65 1 1 2 -15 2 -34z m-678 -146 c125
-79 228 -146 228 -149 0 -3 -57 -34 -128 -69 l-127 -63 -239 153 -238 153 124
63 c67 34 130 61 138 59 9 -1 118 -68 242 -147z m-3275 79 l123 -63 0 -557 c0
-307 -2 -558 -5 -558 -3 0 -61 28 -130 62 l-125 63 0 557 c0 307 3 558 8 558
4 0 62 -28 129 -62z m2989 -230 c120 -78 224 -147 231 -154 7 -7 13 -35 13
-63 l0 -51 -240 120 -240 120 0 85 c0 47 4 85 8 85 5 0 107 -64 228 -142z
m-3813 -224 l57 -28 0 -99 c0 -129 12 -155 91 -197 32 -17 59 -35 59 -41 0 -5
-3 -9 -7 -8 -5 0 -202 98 -440 217 l-432 217 75 97 75 96 232 -112 c128 -62
258 -126 290 -142z m4552 145 c99 -34 184 -65 189 -70 4 -4 -47 -34 -115 -68
l-124 -60 -115 39 c-63 22 -151 52 -194 66 l-80 27 125 63 c68 35 126 63 129
64 3 0 86 -27 185 -61z m-65 -261 c0 -21 -3 -38 -7 -38 -5 0 -93 22 -198 48
l-190 48 -3 56 -3 57 201 -67 200 -67 0 -37z m290 127 c0 -35 -1 -35 -130
-100 l-130 -65 0 38 0 37 123 62 c67 34 125 62 130 62 4 1 7 -15 7 -34z
m-4690 -685 c0 -3 -24 -18 -52 -32 l-53 -26 -695 350 c-382 192 -699 352 -704
356 -5 3 15 17 45 32 l54 28 702 -352 c387 -193 703 -353 703 -356z m-819 269
l699 -351 0 -559 c0 -307 -2 -559 -5 -559 -3 0 -320 158 -705 350 l-700 350 0
560 c0 308 3 560 6 560 3 0 320 -158 705 -351z m1209 -154 c53 -27 90 -51 90
-60 0 -8 -2 -15 -4 -15 -20 0 -186 95 -186 106 0 8 2 14 5 14 3 0 46 -20 95
-45z m31 -182 c126 -64 229 -119 229 -123 0 -3 -55 -33 -122 -66 l-123 -61
-172 86 -173 86 0 65 0 66 63 31 c34 18 64 32 66 32 2 1 106 -52 232 -116z
m-391 -523 l0 -560 -50 -25 c-27 -14 -54 -25 -60 -25 -7 0 -10 181 -10 558 l0
558 53 26 c28 15 55 27 60 27 4 1 7 -251 7 -559z m360 193 c0 -29 -3 -53 -8
-53 -4 0 -76 25 -161 55 -85 30 -156 55 -158 55 -1 0 -3 36 -3 80 l0 80 165
-82 165 -83 0 -52z m501 26 c107 -88 198 -164 203 -169 5 -5 -50 -38 -123 -74
l-131 -66 -206 172 -206 172 124 62 c68 35 128 63 134 63 6 1 98 -71 205 -160z
m-243 -188 c160 -134 172 -147 172 -178 l0 -33 -200 150 -200 150 0 51 0 51
28 -24 c15 -12 105 -88 200 -167z m462 -56 c0 -35 -1 -35 -130 -100 l-130 -65
0 35 c0 35 1 35 128 99 70 36 128 65 130 65 1 1 2 -15 2 -34z m-708 -126 c112
-73 216 -141 232 -152 l29 -20 -127 -64 -127 -64 -175 111 -174 112 0 78 0 77
58 26 c31 14 62 26 69 26 7 1 103 -58 215 -130z m-190 -210 c184 -118 178
-112 178 -171 0 -26 -2 -48 -5 -48 -3 0 -77 36 -165 80 l-160 80 0 75 c0 41 2
75 5 75 3 0 69 -41 147 -91z m680 -41 c103 -35 188 -65 188 -68 0 -3 -54 -32
-120 -65 l-120 -60 -198 66 -197 66 120 61 c66 33 124 61 130 61 5 1 94 -27
197 -61z m-259 -157 l187 -63 0 -37 0 -38 -177 43 c-98 24 -188 46 -200 49
-20 5 -23 12 -23 61 0 41 3 55 13 52 6 -3 96 -33 200 -67z m477 24 l0 -36
-125 -59 c-69 -33 -128 -60 -130 -60 -3 0 -5 15 -5 33 0 31 3 34 123 94 67 34
125 62 130 62 4 1 7 -15 7 -34z"/>
</g>
</svg>
